<?xml version="1.0" standalone="no"?>
<!DOCTYPE svg PUBLIC "-//W3C//DTD SVG 20010904//EN"
 "http://www.w3.org/TR/2001/REC-SVG-20010904/DTD/svg10.dtd">
<svg version="1.0" xmlns="http://www.w3.org/2000/svg"
 width="225.000000pt" height="225.000000pt" viewBox="0 0 225.000000 225.000000"
 preserveAspectRatio="xMidYMid meet">

<g transform="translate(0.000000,225.000000) scale(0.100000,-0.100000)"
fill="#000000" stroke="none">
<path d="M990 2169 c-180 -27 -343 -112 -480 -249 -133 -133 -211 -275 -246
-449 -20 -102 -15 -293 11 -391 23 -86 92 -232 141 -297 46 -60 339 -375 534
-575 129 -132 137 -138 175 -138 38 0 46 6 160 123 184 188 507 536 549 591
115 152 173 353 163 568 -6 137 -23 205 -82 325 -117 239 -325 410 -581 478
-73 20 -257 27 -344 14z m295 -74 c304 -64 555 -307 629 -608 24 -97 22 -264
-3 -370 -39 -166 -91 -254 -258 -435 -292 -315 -507 -537 -525 -540 -14 -3
-50 28 -127 110 -538 568 -555 588 -613 716 -65 143 -87 324 -58 482 57 315
322 582 639 645 90 18 231 18 316 0z"/>
<path d="M951 1979 c-132 -34 -215 -83 -317 -184 -74 -73 -98 -106 -132 -175
-59 -121 -76 -193 -75 -325 1 -198 65 -350 207 -490 132 -131 271 -192 456
-202 205 -11 381 57 525 202 89 89 135 159 171 264 67 192 51 386 -48 574 -49
94 -192 233 -289 280 -157 77 -340 98 -498 56z m366 -75 c204 -69 351 -220
415 -424 18 -60 23 -97 22 -185 0 -96 -4 -121 -30 -195 -38 -107 -86 -181
-172 -262 -128 -121 -272 -173 -451 -166 -124 6 -206 29 -299 85 -128 78 -225
198 -276 343 -53 150 -39 346 34 490 74 145 238 279 390 320 111 30 269 27
367 -6z"/>
<path d="M1292 1774 c-16 -11 -22 -25 -22 -55 0 -21 -2 -39 -4 -39 -3 0 -27
14 -55 31 -82 51 -95 47 -319 -86 -223 -133 -230 -138 -248 -181 -28 -67 25
-144 101 -144 l30 0 -3 -197 c-3 -217 5 -254 58 -280 35 -18 555 -18 590 0 53
26 61 63 58 280 l-3 197 30 0 c47 0 92 33 104 77 15 52 -10 99 -74 141 l-50
32 -5 99 c-6 127 -17 141 -104 141 -40 0 -70 -6 -84 -16z m118 -114 c0 -33 -3
-60 -6 -60 -4 0 -22 9 -40 21 -29 18 -34 26 -34 60 0 39 0 39 40 39 l40 0 0
-60z m-75 -102 c116 -69 208 -130 211 -141 7 -23 -12 -47 -38 -47 -11 0 -95
45 -187 100 -110 66 -176 100 -196 100 -20 0 -86 -34 -196 -100 -92 -55 -176
-100 -187 -100 -26 0 -45 24 -38 47 5 15 395 260 418 262 4 1 100 -54 213
-121z m-62 -139 l137 -81 0 -217 c0 -155 -3 -220 -12 -229 -7 -7 -39 -12 -75
-12 l-63 0 0 126 c0 125 0 126 -29 155 -27 27 -35 29 -106 29 -71 0 -79 -2
-106 -29 -29 -29 -29 -30 -29 -155 l0 -126 -63 0 c-36 0 -68 5 -75 12 -9 9
-12 74 -12 229 l0 217 137 81 c75 45 142 81 148 81 6 0 73 -36 148 -81z m-89
-305 c13 -12 16 -39 16 -125 l0 -109 -75 0 -75 0 0 109 c0 86 3 113 16 125 21
21 97 21 118 0z"/>
</g>
</svg>
